<svg width="20" height="20" viewBox="0 0 20 20" fill="none" xmlns="http://www.w3.org/2000/svg">
<path d="M4.47666 20H0.330143V6.64702H4.47666V20ZM2.40117 4.82555C1.07525 4.82555 -0.000221252 3.72732 -0.000221252 2.40139C-0.000221243 1.7645 0.252782 1.1537 0.70313 0.703352C1.15348 0.253003 1.76428 0 2.40117 0C3.03806 0 3.64886 0.253003 4.09921 0.703352C4.54956 1.1537 4.80256 1.7645 4.80256 2.40139C4.80256 3.72732 3.72665 4.82555 2.40117 4.82555ZM19.9958 20H15.8582V13.4999C15.8582 11.9507 15.8269 9.96406 13.7023 9.96406C11.5465 9.96406 11.2161 11.6471 11.2161 13.3882V20H7.07404V6.64702H11.0509V8.46849H11.109C11.6625 7.41936 13.0148 6.31219 15.0323 6.31219C19.2288 6.31219 20.0002 9.07565 20.0002 12.665V20H19.9958Z" fill="#18B5DC"/>
</svg>
